<mxfile host="app.diagrams.net" modified="2023-06-28T13:40:12.199Z" agent="Mozilla/5.0 (Windows NT 10.0; Win64; x64; rv:109.0) Gecko/20100101 Firefox/114.0" etag="ITKVezCsPX33GnXkcNRH" version="21.2.1" type="device">
  <diagram id="C5RBs43oDa-KdzZeNtuy" name="Page-1">
    <mxGraphModel dx="1434" dy="731" grid="1" gridSize="10" guides="1" tooltips="1" connect="1" arrows="1" fold="1" page="1" pageScale="1" pageWidth="827" pageHeight="1169" math="0" shadow="0">
      <root>
        <mxCell id="WIyWlLk6GJQsqaUBKTNV-0" />
        <mxCell id="WIyWlLk6GJQsqaUBKTNV-1" parent="WIyWlLk6GJQsqaUBKTNV-0" />
        <mxCell id="BJGar_pp0IyXILPiPcHG-2" value="" style="edgeStyle=orthogonalEdgeStyle;rounded=0;orthogonalLoop=1;jettySize=auto;html=1;" parent="WIyWlLk6GJQsqaUBKTNV-1" source="BJGar_pp0IyXILPiPcHG-0" target="BJGar_pp0IyXILPiPcHG-1" edge="1">
          <mxGeometry relative="1" as="geometry" />
        </mxCell>
        <mxCell id="BJGar_pp0IyXILPiPcHG-0" value="start" style="ellipse;whiteSpace=wrap;html=1;" parent="WIyWlLk6GJQsqaUBKTNV-1" vertex="1">
          <mxGeometry x="310" y="20" width="120" height="50" as="geometry" />
        </mxCell>
        <mxCell id="BJGar_pp0IyXILPiPcHG-6" value="" style="edgeStyle=orthogonalEdgeStyle;rounded=0;orthogonalLoop=1;jettySize=auto;html=1;" parent="WIyWlLk6GJQsqaUBKTNV-1" source="BJGar_pp0IyXILPiPcHG-1" target="BJGar_pp0IyXILPiPcHG-5" edge="1">
          <mxGeometry relative="1" as="geometry" />
        </mxCell>
        <mxCell id="BJGar_pp0IyXILPiPcHG-1" value="arrayLength &lt;br&gt;stringsArr[arrayLength]" style="shape=parallelogram;perimeter=parallelogramPerimeter;whiteSpace=wrap;html=1;fixedSize=1;" parent="WIyWlLk6GJQsqaUBKTNV-1" vertex="1">
          <mxGeometry x="275" y="110" width="190" height="60" as="geometry" />
        </mxCell>
        <mxCell id="BJGar_pp0IyXILPiPcHG-8" value="" style="edgeStyle=orthogonalEdgeStyle;rounded=0;orthogonalLoop=1;jettySize=auto;html=1;" parent="WIyWlLk6GJQsqaUBKTNV-1" source="BJGar_pp0IyXILPiPcHG-5" target="BJGar_pp0IyXILPiPcHG-7" edge="1">
          <mxGeometry relative="1" as="geometry" />
        </mxCell>
        <mxCell id="BJGar_pp0IyXILPiPcHG-5" value="i = 0&lt;br&gt;newLength = 0" style="rounded=0;whiteSpace=wrap;html=1;" parent="WIyWlLk6GJQsqaUBKTNV-1" vertex="1">
          <mxGeometry x="310" y="220" width="120" height="60" as="geometry" />
        </mxCell>
        <mxCell id="BJGar_pp0IyXILPiPcHG-10" value="yes" style="edgeStyle=orthogonalEdgeStyle;rounded=0;orthogonalLoop=1;jettySize=auto;html=1;" parent="WIyWlLk6GJQsqaUBKTNV-1" source="BJGar_pp0IyXILPiPcHG-7" target="BJGar_pp0IyXILPiPcHG-9" edge="1">
          <mxGeometry relative="1" as="geometry" />
        </mxCell>
        <mxCell id="BJGar_pp0IyXILPiPcHG-20" value="" style="edgeStyle=orthogonalEdgeStyle;rounded=0;orthogonalLoop=1;jettySize=auto;html=1;" parent="WIyWlLk6GJQsqaUBKTNV-1" source="BJGar_pp0IyXILPiPcHG-7" target="BJGar_pp0IyXILPiPcHG-19" edge="1">
          <mxGeometry relative="1" as="geometry" />
        </mxCell>
        <mxCell id="BJGar_pp0IyXILPiPcHG-7" value="i &amp;lt; arrayLenght" style="rhombus;whiteSpace=wrap;html=1;rounded=0;" parent="WIyWlLk6GJQsqaUBKTNV-1" vertex="1">
          <mxGeometry x="300" y="310" width="140" height="80" as="geometry" />
        </mxCell>
        <mxCell id="BJGar_pp0IyXILPiPcHG-12" value="yes" style="edgeStyle=orthogonalEdgeStyle;rounded=0;orthogonalLoop=1;jettySize=auto;html=1;" parent="WIyWlLk6GJQsqaUBKTNV-1" source="BJGar_pp0IyXILPiPcHG-9" target="BJGar_pp0IyXILPiPcHG-11" edge="1">
          <mxGeometry relative="1" as="geometry" />
        </mxCell>
        <mxCell id="BJGar_pp0IyXILPiPcHG-14" value="no" style="edgeStyle=orthogonalEdgeStyle;rounded=0;orthogonalLoop=1;jettySize=auto;html=1;" parent="WIyWlLk6GJQsqaUBKTNV-1" source="BJGar_pp0IyXILPiPcHG-9" target="BJGar_pp0IyXILPiPcHG-13" edge="1">
          <mxGeometry relative="1" as="geometry" />
        </mxCell>
        <mxCell id="BJGar_pp0IyXILPiPcHG-9" value="stringsArr[i].Length &amp;lt;= 3 ?" style="rhombus;whiteSpace=wrap;html=1;rounded=0;" parent="WIyWlLk6GJQsqaUBKTNV-1" vertex="1">
          <mxGeometry x="260" y="450" width="220" height="80" as="geometry" />
        </mxCell>
        <mxCell id="BJGar_pp0IyXILPiPcHG-15" style="edgeStyle=orthogonalEdgeStyle;rounded=0;orthogonalLoop=1;jettySize=auto;html=1;exitX=0.5;exitY=1;exitDx=0;exitDy=0;entryX=1;entryY=0.5;entryDx=0;entryDy=0;" parent="WIyWlLk6GJQsqaUBKTNV-1" source="BJGar_pp0IyXILPiPcHG-11" target="BJGar_pp0IyXILPiPcHG-13" edge="1">
          <mxGeometry relative="1" as="geometry" />
        </mxCell>
        <mxCell id="BJGar_pp0IyXILPiPcHG-11" value="newLength++" style="rounded=0;whiteSpace=wrap;html=1;" parent="WIyWlLk6GJQsqaUBKTNV-1" vertex="1">
          <mxGeometry x="530" y="460" width="120" height="60" as="geometry" />
        </mxCell>
        <mxCell id="BJGar_pp0IyXILPiPcHG-16" style="edgeStyle=orthogonalEdgeStyle;rounded=0;orthogonalLoop=1;jettySize=auto;html=1;entryX=0;entryY=0.5;entryDx=0;entryDy=0;" parent="WIyWlLk6GJQsqaUBKTNV-1" source="BJGar_pp0IyXILPiPcHG-13" target="BJGar_pp0IyXILPiPcHG-7" edge="1">
          <mxGeometry relative="1" as="geometry">
            <Array as="points">
              <mxPoint x="230" y="620" />
              <mxPoint x="230" y="350" />
            </Array>
          </mxGeometry>
        </mxCell>
        <mxCell id="BJGar_pp0IyXILPiPcHG-13" value="i++" style="whiteSpace=wrap;html=1;rounded=0;" parent="WIyWlLk6GJQsqaUBKTNV-1" vertex="1">
          <mxGeometry x="310" y="585" width="120" height="60" as="geometry" />
        </mxCell>
        <mxCell id="BJGar_pp0IyXILPiPcHG-27" value="" style="edgeStyle=orthogonalEdgeStyle;rounded=0;orthogonalLoop=1;jettySize=auto;html=1;" parent="WIyWlLk6GJQsqaUBKTNV-1" source="BJGar_pp0IyXILPiPcHG-17" target="BJGar_pp0IyXILPiPcHG-26" edge="1">
          <mxGeometry relative="1" as="geometry">
            <Array as="points">
              <mxPoint x="980" y="350" />
            </Array>
          </mxGeometry>
        </mxCell>
        <mxCell id="BJGar_pp0IyXILPiPcHG-17" value="i = 0&lt;br&gt;int j =0 &lt;br&gt;newStringsArr[newLength]" style="whiteSpace=wrap;html=1;rounded=0;" parent="WIyWlLk6GJQsqaUBKTNV-1" vertex="1">
          <mxGeometry x="720" y="320" width="220" height="60" as="geometry" />
        </mxCell>
        <mxCell id="BJGar_pp0IyXILPiPcHG-22" value="" style="edgeStyle=orthogonalEdgeStyle;rounded=0;orthogonalLoop=1;jettySize=auto;html=1;" parent="WIyWlLk6GJQsqaUBKTNV-1" source="BJGar_pp0IyXILPiPcHG-19" target="BJGar_pp0IyXILPiPcHG-21" edge="1">
          <mxGeometry relative="1" as="geometry" />
        </mxCell>
        <mxCell id="BJGar_pp0IyXILPiPcHG-25" value="" style="edgeStyle=orthogonalEdgeStyle;rounded=0;orthogonalLoop=1;jettySize=auto;html=1;" parent="WIyWlLk6GJQsqaUBKTNV-1" source="BJGar_pp0IyXILPiPcHG-19" target="BJGar_pp0IyXILPiPcHG-17" edge="1">
          <mxGeometry relative="1" as="geometry" />
        </mxCell>
        <mxCell id="BJGar_pp0IyXILPiPcHG-19" value="newLength &amp;gt; 0 ?" style="rhombus;whiteSpace=wrap;html=1;rounded=0;" parent="WIyWlLk6GJQsqaUBKTNV-1" vertex="1">
          <mxGeometry x="520" y="310" width="140" height="80" as="geometry" />
        </mxCell>
        <mxCell id="BJGar_pp0IyXILPiPcHG-24" value="" style="edgeStyle=orthogonalEdgeStyle;rounded=0;orthogonalLoop=1;jettySize=auto;html=1;" parent="WIyWlLk6GJQsqaUBKTNV-1" source="BJGar_pp0IyXILPiPcHG-21" target="BJGar_pp0IyXILPiPcHG-23" edge="1">
          <mxGeometry relative="1" as="geometry" />
        </mxCell>
        <mxCell id="BJGar_pp0IyXILPiPcHG-21" value="[ stringsArr ] -&amp;gt; []" style="shape=document;whiteSpace=wrap;html=1;boundedLbl=1;rounded=0;" parent="WIyWlLk6GJQsqaUBKTNV-1" vertex="1">
          <mxGeometry x="530" y="200" width="120" height="80" as="geometry" />
        </mxCell>
        <mxCell id="BJGar_pp0IyXILPiPcHG-23" value="end" style="ellipse;whiteSpace=wrap;html=1;rounded=0;" parent="WIyWlLk6GJQsqaUBKTNV-1" vertex="1">
          <mxGeometry x="530" y="75" width="120" height="50" as="geometry" />
        </mxCell>
        <mxCell id="BJGar_pp0IyXILPiPcHG-37" value="yes" style="edgeStyle=orthogonalEdgeStyle;rounded=0;orthogonalLoop=1;jettySize=auto;html=1;" parent="WIyWlLk6GJQsqaUBKTNV-1" source="BJGar_pp0IyXILPiPcHG-26" target="BJGar_pp0IyXILPiPcHG-30" edge="1">
          <mxGeometry relative="1" as="geometry" />
        </mxCell>
        <mxCell id="BJGar_pp0IyXILPiPcHG-43" value="" style="edgeStyle=orthogonalEdgeStyle;rounded=0;orthogonalLoop=1;jettySize=auto;html=1;" parent="WIyWlLk6GJQsqaUBKTNV-1" source="BJGar_pp0IyXILPiPcHG-26" target="BJGar_pp0IyXILPiPcHG-44" edge="1">
          <mxGeometry relative="1" as="geometry">
            <mxPoint x="1150" y="170" as="targetPoint" />
            <Array as="points">
              <mxPoint x="1145" y="480" />
            </Array>
          </mxGeometry>
        </mxCell>
        <mxCell id="BJGar_pp0IyXILPiPcHG-26" value="i &amp;lt; arrayLength &amp;amp;&amp;amp;&lt;br&gt;j &amp;lt; newLength " style="rhombus;whiteSpace=wrap;html=1;rounded=0;" parent="WIyWlLk6GJQsqaUBKTNV-1" vertex="1">
          <mxGeometry x="910" y="440" width="140" height="80" as="geometry" />
        </mxCell>
        <mxCell id="BJGar_pp0IyXILPiPcHG-38" value="yes" style="edgeStyle=orthogonalEdgeStyle;rounded=0;orthogonalLoop=1;jettySize=auto;html=1;" parent="WIyWlLk6GJQsqaUBKTNV-1" source="BJGar_pp0IyXILPiPcHG-30" target="BJGar_pp0IyXILPiPcHG-31" edge="1">
          <mxGeometry relative="1" as="geometry" />
        </mxCell>
        <mxCell id="BJGar_pp0IyXILPiPcHG-39" value="no" style="edgeStyle=orthogonalEdgeStyle;rounded=0;orthogonalLoop=1;jettySize=auto;html=1;" parent="WIyWlLk6GJQsqaUBKTNV-1" source="BJGar_pp0IyXILPiPcHG-30" target="BJGar_pp0IyXILPiPcHG-33" edge="1">
          <mxGeometry relative="1" as="geometry" />
        </mxCell>
        <mxCell id="BJGar_pp0IyXILPiPcHG-30" value="stringsArr[i].Length &amp;lt;= 3 ?" style="rhombus;whiteSpace=wrap;html=1;rounded=0;" parent="WIyWlLk6GJQsqaUBKTNV-1" vertex="1">
          <mxGeometry x="870" y="565" width="220" height="80" as="geometry" />
        </mxCell>
        <mxCell id="BJGar_pp0IyXILPiPcHG-40" style="edgeStyle=orthogonalEdgeStyle;rounded=0;orthogonalLoop=1;jettySize=auto;html=1;exitX=0;exitY=0.5;exitDx=0;exitDy=0;entryX=0.5;entryY=1;entryDx=0;entryDy=0;" parent="WIyWlLk6GJQsqaUBKTNV-1" source="BJGar_pp0IyXILPiPcHG-31" target="BJGar_pp0IyXILPiPcHG-33" edge="1">
          <mxGeometry relative="1" as="geometry" />
        </mxCell>
        <mxCell id="BJGar_pp0IyXILPiPcHG-31" value="newStringArr[j] = stringsArr[i]&lt;br&gt;j++" style="whiteSpace=wrap;html=1;rounded=0;" parent="WIyWlLk6GJQsqaUBKTNV-1" vertex="1">
          <mxGeometry x="920" y="700" width="120" height="60" as="geometry" />
        </mxCell>
        <mxCell id="BJGar_pp0IyXILPiPcHG-41" style="edgeStyle=orthogonalEdgeStyle;rounded=0;orthogonalLoop=1;jettySize=auto;html=1;exitX=0.5;exitY=0;exitDx=0;exitDy=0;entryX=0;entryY=0.5;entryDx=0;entryDy=0;" parent="WIyWlLk6GJQsqaUBKTNV-1" source="BJGar_pp0IyXILPiPcHG-33" target="BJGar_pp0IyXILPiPcHG-26" edge="1">
          <mxGeometry relative="1" as="geometry" />
        </mxCell>
        <mxCell id="BJGar_pp0IyXILPiPcHG-33" value="i++" style="whiteSpace=wrap;html=1;rounded=0;" parent="WIyWlLk6GJQsqaUBKTNV-1" vertex="1">
          <mxGeometry x="720" y="575" width="100" height="60" as="geometry" />
        </mxCell>
        <mxCell id="BJGar_pp0IyXILPiPcHG-48" style="edgeStyle=orthogonalEdgeStyle;rounded=0;orthogonalLoop=1;jettySize=auto;html=1;exitX=0;exitY=0.5;exitDx=0;exitDy=0;" parent="WIyWlLk6GJQsqaUBKTNV-1" source="BJGar_pp0IyXILPiPcHG-44" target="BJGar_pp0IyXILPiPcHG-23" edge="1">
          <mxGeometry relative="1" as="geometry" />
        </mxCell>
        <mxCell id="BJGar_pp0IyXILPiPcHG-44" value="[ stringsArr ] -&amp;gt; [ newStringsArr ]" style="shape=document;whiteSpace=wrap;html=1;boundedLbl=1;rounded=0;" parent="WIyWlLk6GJQsqaUBKTNV-1" vertex="1">
          <mxGeometry x="1040" y="60" width="210" height="80" as="geometry" />
        </mxCell>
      </root>
    </mxGraphModel>
  </diagram>
</mxfile>
